#!OML:ASF E:\Steps\Project 1\Capture day 1\Session 2\Subject.ASF
:FULLY-SPECIFIED
:DEGREES
109
root -0.632389 16.3414 21.136 -156.274 9.00334 192.97
lowerback -19.8967 -4.49541 -8.80033
upperback 1.23536 -3.99886 1.74674
thorax 13.4265 -2.52091 5.75076
lowerneck 0.466511 -11.3143 0.321458
upperneck 19.5356 -15.3653 5.30311
head 6.27999 -6.66498 0.831509
rclavicle 5.56597e-014 1.59028e-014
rhumerus -45.1415 -17.0561 -76.8396
rradius 39.0901
rwrist -7.51181
rhand -8.92636 -52.5562
rfingers 7.12502
rthumb 17.0173 -81.8308
lclavicle 5.56597e-014 1.59028e-014
lhumerus -33.8465 -0.91266 71.5062
lradius 31.0863
lwrist 3.5489
lhand -22.6208 -13.4478
lfingers 7.12502
lthumb 3.80927 16.4979
rfemur -50.8443 -14.3308 -0.807381
rtibia 43.8646
rfoot -17.1953 -14.1416
rtoes -26.2076
lfemur -25.8373 -9.29539 -5.14435
ltibia 26.6545
lfoot -20.2529 11.1011
ltoes -9.76765
110
root -0.568551 16.3355 21.0981 -156.376 9.18128 193.541
lowerback -19.8856 -4.44869 -8.94293
upperback 1.18431 -3.92914 1.93293
thorax 13.3748 -2.50563 6.07195
lowerneck -0.0305551 -11.441 0.314695
upperneck 20.3797 -15.5063 4.81856
head 6.60094 -6.71023 0.625795
rclavicle -1.70955e-014 5.725e-014
rhumerus -45.4991 -16.9166 -76.654
rradius 38.9771
rwrist -7.58282
rhand -8.90051 -52.4794
rfingers 7.12502
rthumb 17.0422 -81.7519
lclavicle -1.70955e-014 5.725e-014
lhumerus -34.2058 -0.902697 71.3403
lradius 31.3673
lwrist 3.41531
lhand -21.7342 -13.231
lfingers 7.12502
lthumb 4.66541 16.6976
rfemur -50.2696 -13.3544 -1.19025
rtibia 42.1936
rfoot -16.9867 -14.2884
rtoes -25.1668
lfemur -25.4975 -8.83398 -4.33856
ltibia 26.9914
lfoot -20.4394 11.3206
ltoes -12.298
111
root -0.46082 16.3302 21.0089 -157.085 10.2753 194.702
lowerback -20.2346 -4.14719 -9.07712
upperback 1.34916 -3.50813 2.23933
thorax 13.726 -2.36436 6.63336
lowerneck 0.563792 -11.4325 -0.142563
upperneck 20.6762 -15.4027 4.73936
head 6.62169 -6.68215 0.706026
rclavicle 1.74931e-014 -1.27222e-014
rhumerus -46.3309 -16.4058 -76.3963
rradius 39.1385
rwrist -7.82909
rhand -8.84276 -52.2111
rfingers 7.12502
rthumb 17.0978 -81.4788
lclavicle 1.74931e-014 -1.27222e-014
lhumerus -35.0302 -0.928761 71.1727
lradius 31.6642
lwrist 3.37381
lhand -22.0686 -13.4438
lfingers 7.12502
lthumb 4.34249 16.4917
rfemur -49.3383 -10.4289 -1.28668
rtibia 40.36
rfoot -16.6643 -14.919
rtoes -24.098
lfemur -23.5004 -7.6304 -3.01526
ltibia 26.6194
lfoot -20.9051 11.5988
ltoes -12.1315
112
root -0.39639 16.3283 20.971 -157.515 10.2978 195.05
lowerback -20.5649 -3.84092 -8.89942
upperback 2.02492 -3.06932 1.85146
thorax 14.5979 -2.20209 6.212
lowerneck -0.563221 -11.5857 0.714769
upperneck 20.7983 -15.8039 4.96514
head 6.81843 -6.7747 0.549506
rclavicle 3.26007e-014 2.54444e-014
rhumerus -45.7914 -17.6976 -76.9084
rradius 39.0516
rwrist -7.63191
rhand -8.83872 -52.1832
rfingers 7.12502
rthumb 17.1017 -81.4505
lclavicle 3.26007e-014 2.54444e-014
lhumerus -33.7004 -1.7717 70.5645
lradius 31.6048
lwrist 3.70819
lhand -22.3855 -13.4178
lfingers 7.12502
lthumb 4.0365 16.5237
rfemur -48.44 -9.58224 -1.78949
rtibia 38.8013
rfoot -16.1588 -15.1693
rtoes -24.3618
lfemur -22.8689 -7.49293 -2.46417
ltibia 26.8556
lfoot -21.1918 11.6078
ltoes -12.4881
113
root -0.341297 16.3264 20.9518 -157.778 10.1094 195.491
lowerback -20.2061 -3.96563 -9.07809
upperback 1.88133 -3.26231 2.09596
thorax 14.2826 -2.30038 6.54357
lowerneck -0.00479719 -11.4809 0.209978
upperneck 20.9342 -15.6028 5.1269
head 6.8142 -6.69391 0.718485
rclavicle -5.60573e-014 -6.36111e-014
rhumerus -46.2913 -17.2615 -76.6794
rradius 38.958
rwrist -7.67078
rhand -8.78395 -52.273
rfingers 7.12502
rthumb 17.1544 -81.5357
lclavicle -5.60573e-014 -6.36111e-014
lhumerus -34.1718 -1.64097 70.4672
lradius 31.7004
lwrist 3.67908
lhand -22.6043 -13.434
lfingers 7.12502
lthumb 3.82527 16.5114
rfemur -47.6537 -8.97691 -2.08167
rtibia 37.2974
rfoot -16.1003 -15.1773
rtoes -22.241
lfemur -22.6672 -7.27096 -1.76611
ltibia 27.3075
lfoot -21.2715 11.8348
ltoes -15.7087
114
root -0.2823 16.3227 20.9386 -157.883 9.93954 196.181
lowerback -19.34 -3.7676 -8.94173
upperback 1.75225 -3.14111 2.24822
thorax 13.5971 -2.21203 6.70202
lowerneck -0.672013 -11.645 0.74679
upperneck 21.5065 -15.8402 4.68286
head 7.04284 -6.75485 0.433769
rclavicle -5.52621e-014 -3.18055e-015
rhumerus -46.6826 -17.5576 -76.4993
rradius 38.9099
rwrist -7.62011
rhand -8.85577 -51.9889
rfingers 7.12502
rthumb 17.0853 -81.2577
lclavicle -5.52621e-014 -3.18055e-015
lhumerus -34.0595 -2.03432 70.2795
lradius 31.7842
lwrist 3.45261
lhand -22.6487 -13.248
lfingers 7.12502
lthumb 3.78231 16.6982
rfemur -47.0731 -8.07568 -2.1317
rtibia 35.8102
rfoot -15.7578 -15.3816
rtoes -20.9319
lfemur -22.7583 -6.78653 -0.728378
ltibia 28.0599
lfoot -21.505 11.9029
ltoes -18.0786
115
root -0.228908 16.3202 20.9252 -157.939 9.85139 196.516
lowerback -19.3384 -3.81718 -8.93548
upperback 1.77331 -3.21091 2.26037
thorax 13.6354 -2.24702 6.68938
lowerneck -0.357994 -11.6025 0.645113
upperneck 21.3981 -15.7818 4.88138
head 6.97717 -6.72717 0.536391
rclavicle 7.95139e-015 -3.18055e-014
rhumerus -46.949 -17.511 -76.5284
rradius 38.9818
rwrist -7.77182
rhand -8.64796 -51.8331
rfingers 7.12502
rthumb 17.2853 -81.0844
lclavicle 7.95139e-015 -3.18055e-014
lhumerus -34.0931 -1.89459 69.8499
lradius 31.9543
lwrist 3.14988
lhand -22.6801 -13.0621
lfingers 7.12502
lthumb 3.75207 16.8846
rfemur -46.6474 -7.36634 -2.5305
rtibia 34.4528
rfoot -14.8388 -15.8334
rtoes -23.1088
lfemur -22.8723 -6.60482 -0.125013
ltibia 28.6431
lfoot -21.7756 11.868
ltoes -18.2213
116
root -0.160265 16.3197 20.9876 -156.998 8.69477 196.298
lowerback -19.0036 -4.45198 -9.76535
upperback 1.19978 -3.91299 2.47798
thorax 12.9923 -2.58042 7.20772
lowerneck -0.224377 -11.5796 0.401792
upperneck 21.3648 -15.7589 5.0437
head 6.97577 -6.72606 0.631657
rclavicle 3.73715e-014 -6.04305e-014
rhumerus -47.24 -17.2737 -76.519
rradius 39.1057
rwrist -8.2715
rhand -8.73613 -51.6094
rfingers 7.12502
rthumb 17.2004 -80.8681
lclavicle 3.73715e-014 -6.04305e-014
lhumerus -34.3395 -1.74485 69.5828
lradius 32.227
lwrist 3.25954
lhand -22.8695 -13.2845
lfingers 7.12502
lthumb 3.56909 16.6653
rfemur -47.1997 -7.87197 -3.22133
rtibia 33.534
rfoot -14.336 -16.9761
rtoes -24.367
lfemur -25.0218 -6.51205 0.589976
ltibia 29.532
lfoot -21.7057 11.048
ltoes -16.3312
117
root -0.117884 16.3113 20.9425 -157.495 8.92351 196.943
lowerback -18.8004 -4.26883 -9.40562
upperback 1.35221 -3.79043 2.5654
thorax 13.0041 -2.51524 7.14412
lowerneck -0.086824 -11.5619 0.221278
upperneck 21.4154 -15.7288 5.12922
head 6.98938 -6.7156 0.693708
rclavicle 6.20208e-014 4.45278e-014
rhumerus -47.5505 -16.9213 -76.5711
rradius 39.1425
rwrist -8.41034
rhand -9.20959 -51.4194
rfingers 7.12502
rthumb 16.7447 -80.7173
lclavicle 6.20208e-014 4.45278e-014
lhumerus -34.5954 -1.73327 69.407
lradius 32.5142
lwrist 3.43237
lhand -22.8222 -13.3403
lfingers 7.12502
lthumb 3.61484 16.6088
rfemur -46.2859 -6.90224 -3.22535
rtibia 32.0739
rfoot -13.7633 -17.0461
rtoes -24.6853
lfemur -24.0199 -6.3796 1.23042
ltibia 29.609
lfoot -22.2001 10.8219
ltoes -12.944
118
root -0.0473633 16.3122 20.9119 -157.808 9.12567 197.501
lowerback -18.5537 -4.02072 -9.40885
upperback 1.52968 -3.4862 2.5377
thorax 13.0019 -2.38651 7.2154
lowerneck -0.533227 -11.6272 0.583226
upperneck 21.6647 -15.8838 5.15492
head 7.12686 -6.73329 0.604783
rclavicle 3.06128e-014 -5.08889e-014
rhumerus -47.7596 -17.2845 -76.626
rradius 39.1685
rwrist -7.99553
rhand -8.71653 -51.8027
rfingers 7.12502
rthumb 17.2193 -81.0598
lclavicle 3.06128e-014 -5.08889e-014
lhumerus -34.2368 -2.10792 69.0668
lradius 32.5678
lwrist 3.42799
lhand -22.4415 -13.189
lfingers 7.12502
lthumb 3.98242 16.7535
rfemur -45.7967 -5.71732 -3.28562
rtibia 30.8614
rfoot -12.9961 -17.6024
rtoes -25.0673
lfemur -23.3796 -6.2814 2.0406
ltibia 29.8101
lfoot -22.6289 10.8468
ltoes -11.7281
119
root -0.00375421 16.3053 20.8642 -158.274 9.40869 198.208
lowerback -18.1871 -3.80923 -9.06421
upperback 1.57435 -3.3416 2.70398
thorax 12.7961 -2.29926 7.26117
lowerneck -0.580279 -11.619 0.372131
upperneck 22.0132 -15.8433 5.03592
head 7.25489 -6.71395 0.590718
rclavicle -3.97569e-016 -5.08889e-014
rhumerus -48.2221 -17.054 -76.3077
rradius 39.1583
rwrist -7.76927
rhand -8.11716 -52.0743
rfingers 7.12502
rthumb 17.7961 -81.28
lclavicle -3.97569e-016 -5.08889e-014
lhumerus -34.5203 -2.00688 68.9491
lradius 32.7413
lwrist 3.16445
lhand -22.3177 -12.9616
lfingers 7.12502
lthumb 4.10203 16.9787
rfemur -45.0632 -4.97324 -2.95607
rtibia 29.6811
rfoot -12.2106 -17.5986
rtoes -25.9853
lfemur -22.3285 -6.50407 2.75908
ltibia 29.8327
lfoot -23.2234 11.086
ltoes -10.6627
120
root 0.0607448 16.309 20.8559 -158.245 9.51875 198.509
lowerback -18.1659 -3.67622 -9.19483
upperback 1.66046 -3.12575 2.59963
thorax 12.8409 -2.21063 7.28318
lowerneck -0.742294 -11.6824 0.574481
upperneck 22.0114 -16.004 5.27635
head 7.29284 -6.74963 0.613855
rclavicle 7.95139e-015 4.13472e-014
rhumerus -48.2183 -17.4961 -76.4882
rradius 38.9527
rwrist -7.67923
rhand -8.43456 -52.0788
rfingers 7.12502
rthumb 17.4907 -81.312
lclavicle 7.95139e-015 4.13472e-014
lhumerus -34.1723 -2.29899 68.4808
lradius 33.0312
lwrist 2.85176
lhand -22.2524 -12.4758
lfingers 7.12502
lthumb 4.16506 17.4633
rfemur -45.1085 -4.35482 -3.0725
rtibia 28.9079
rfoot -12.2398 -17.8734
rtoes -25.1764
lfemur -22.5432 -6.16542 3.33443
ltibia 30.6168
lfoot -23.7021 10.9537
ltoes -11.1346
121
root 0.141464 16.3002 20.9191 -156.844 8.57103 198.228
lowerback -18.2236 -4.35004 -10.0039
upperback 0.850834 -3.83766 2.76039
thorax 12.1606 -2.52001 7.72422
lowerneck -0.236106 -11.5712 0.181746
upperneck 22.0896 -15.818 5.50985
head 7.27676 -6.66734 0.788083
rclavicle -3.97569e-014 -1.27222e-014
rhumerus -48.5318 -16.8959 -76.7174
rradius 38.806
rwrist -7.82933
rhand -8.88795 -52.2377
rfingers 7.12502
rthumb 17.0543 -81.5091
lclavicle -3.97569e-014 -1.27222e-014
lhumerus -34.6319 -2.10601 68.0427
lradius 33.3789
lwrist 2.63393
lhand -22.4685 -12.9924
lfingers 7.12502
lthumb 3.95639 16.9506
rfemur -46.5742 -5.12816 -3.67898
rtibia 28.6813
rfoot -12.7339 -18.791
rtoes -24.0623
lfemur -25.4892 -5.55188 4.03561
ltibia 32.1959
lfoot -23.683 10.605
ltoes -13.6554
122
root 0.178348 16.2996 20.8437 -157.956 9.04625 198.754
lowerback -17.7562 -4.06498 -9.51668
upperback 1.19591 -3.61714 2.68517
thorax 12.1964 -2.4093 7.43036
lowerneck -0.0846141 -11.5185 -0.0219927
upperneck 22.3456 -15.7172 5.49813
head 7.34691 -6.61748 0.826383
rclavicle -2.8625e-014 -6.36111e-015
rhumerus -48.9342 -16.5301 -76.724
rradius 38.7616
rwrist -7.3958
rhand -8.3901 -51.7516
rfingers 7.12502
rthumb 17.5335 -80.9809
lclavicle -2.8625e-014 -6.36111e-015
lhumerus -34.9079 -2.08997 67.7411
lradius 33.6178
lwrist 2.79937
lhand -22.6334 -13.4261
lfingers 7.12502
lthumb 3.79709 16.5198
rfemur -45.1414 -4.35472 -3.36967
rtibia 27.6022
rfoot -12.4908 -18.296
rtoes -25.2035
lfemur -23.217 -5.84013 4.26389
ltibia 31.4552
lfoot -23.7279 11.3427
ltoes -15.4563
123
root 0.254021 16.2928 20.8262 -157.826 9.17242 199.174
lowerback -17.8816 -3.92506 -9.44694
upperback 1.24855 -3.41975 2.57564
thorax 12.2744 -2.31327 7.32072
lowerneck -0.517439 -11.5832 0.361885
upperneck 22.6082 -15.8608 5.43592
head 7.4788 -6.63423 0.708129
rclavicle 1.19271e-015 -4.45278e-014
rhumerus -49.1543 -16.8017 -77.0778
rradius 38.9574
rwrist -7.59464
rhand -8.96152 -52.8256
rfingers 7.12502
rthumb 16.9835 -82.1031
lclavicle 1.19271e-015 -4.45278e-014
lhumerus -34.5749 -2.44458 67.2677
lradius 33.7654
lwrist 3.02906
lhand -21.3496 -11.3769
lfingers 7.12502
lthumb 5.03681 18.5432
rfemur -45.4019 -3.85816 -3.19794
rtibia 27.1848
rfoot -12.3389 -18.4689
rtoes -25.6636
lfemur -23.1371 -5.3287 4.99214
ltibia 31.7142
lfoot -23.8139 11.5189
ltoes -16.3135
